<?xml version="1.0" encoding="utf-8"?>
<!-- Generator: Adobe Illustrator 27.1.1, SVG Export Plug-In . SVG Version: 6.00 Build 0)  -->
<svg version="1.1" id="Capa_1" xmlns="http://www.w3.org/2000/svg" xmlns:xlink="http://www.w3.org/1999/xlink" x="0px" y="0px"
	 viewBox="0 0 454.26 634.52" style="enable-background:new 0 0 454.26 634.52;" xml:space="preserve">
<style type="text/css">
	.st0{fill:#FFFFFF;}
	.st1{fill:#010202;}
	.st2{fill:#F6DF1C;}
	.st3{fill:none;}
	.st4{fill:#020203;}
</style>
<g>
	<path class="st2" d="M9.49,444.37h435.13V9.24H9.49V444.37z M340.12,326.71l-10.22-4.39c-29.51-12.57-49.11-28.32-49.11-61.61
		c0-30.67,23.37-54.01,59.88-54.01c26,0,44.69,9.05,58.16,32.74l-31.84,20.44c-7.01-12.57-14.57-17.52-26.31-17.52
		c-11.98,0-19.57,7.6-19.57,17.52c0,12.27,7.6,17.23,25.14,24.83l10.22,4.38c34.74,14.9,54.36,30.09,54.36,64.23
		c0,36.81-28.92,56.98-67.76,56.98c-37.97,0-62.51-18.1-74.51-41.81l33.23-19.3c8.76,14.31,20.17,24.83,40.34,24.83
		c16.94,0,27.77-8.47,27.77-20.17C369.89,339.83,358.77,334.86,340.12,326.71z M157.35,352.73c6.42,11.4,12.27,21.03,26.31,21.03
		c13.43,0,21.91-5.26,21.91-25.69V209.04h40.89v139.59c0,42.34-24.82,61.61-61.06,61.61c-32.74,0-51.7-16.94-61.34-37.35
		L157.35,352.73z"/>
	<g>
		<path class="st4" d="M87.76,475.69c-9.68-7.13-22.07-11.21-40.92-11.21H9.49v118.85h37.35c18.85,0,31.24-4.07,40.92-11.21
			c14.6-10.87,23.6-28.52,23.6-48.22S102.36,486.56,87.76,475.69z M79.78,549.71c-6.62,8.32-16.3,13.24-30.39,13.24H32.41v-78.1
			h16.98c14.09,0,23.77,4.92,30.39,13.24c5.43,6.79,8.66,15.96,8.66,25.81C88.44,533.75,85.22,542.92,79.78,549.71z"/>
		<path class="st4" d="M186.91,507.61c-6.45-5.26-14.77-8.32-24.11-8.32c-22.41,0-40.41,18.68-40.41,42.95
			c0,11.2,4.07,21.39,10.53,28.86c7.3,8.49,18.85,13.92,31.07,13.92c8.32,0,16.13-2.55,22.92-8.32v6.62h21.22v-82.34h-21.22V507.61z
			 M186.06,554.47c-4.24,6.11-11.54,10.19-19.86,10.19c-12.39,0-21.73-9.51-21.73-22.41c0-11.88,8.32-22.58,21.22-22.58
			c8.49,0,15.79,4.07,20.37,10.19V554.47z"/>
		<polygon class="st4" points="267.55,550.39 243.44,500.99 219.16,500.99 256,575.01 233.25,624.08 256.34,624.08 313.05,500.99 
			289.79,500.99 		"/>
		<rect x="324.93" y="464.48" class="st4" width="22.92" height="118.85"/>
		<polygon class="st4" points="394.54,529.85 431.04,529.85 431.04,509.48 394.54,509.48 394.54,484.86 442.92,484.86 
			442.92,464.48 371.62,464.48 371.62,583.33 444.62,583.33 444.62,562.96 394.54,562.96 		"/>
	</g>
	<path class="st4" d="M342.13,374.02c-20.17,0-31.57-10.52-40.34-24.83l-33.23,19.3c12,23.72,36.54,41.81,74.51,41.81
		c38.84,0,67.76-20.17,67.76-56.98c0-34.15-19.62-49.33-54.36-64.23l-10.22-4.38c-17.54-7.6-25.14-12.56-25.14-24.83
		c0-9.92,7.59-17.52,19.57-17.52c11.74,0,19.3,4.95,26.31,17.52l31.84-20.44c-13.47-23.69-32.16-32.74-58.16-32.74
		c-36.52,0-59.88,23.34-59.88,54.01c0,33.29,19.6,49.04,49.11,61.61l10.22,4.39c18.65,8.16,29.77,13.12,29.77,27.14
		C369.89,365.55,359.07,374.02,342.13,374.02z"/>
	<path class="st4" d="M185.4,410.23c36.23,0,61.06-19.27,61.06-61.61V209.04h-40.89v139.03c0,20.44-8.47,25.69-21.91,25.69
		c-14.05,0-19.89-9.64-26.31-21.03l-33.28,20.15C133.71,393.29,152.67,410.23,185.4,410.23z"/>
</g>
</svg>
