<?xml version="1.0" encoding="utf-8"?>
<!-- Generator: Adobe Illustrator 27.1.1, SVG Export Plug-In . SVG Version: 6.00 Build 0)  -->
<svg version="1.1" id="Capa_1" xmlns="http://www.w3.org/2000/svg" xmlns:xlink="http://www.w3.org/1999/xlink" x="0px" y="0px"
	 viewBox="0 0 1230.22 497.78" style="enable-background:new 0 0 1230.22 497.78;" xml:space="preserve">
<style type="text/css">
	.st0{fill:#FFFFFF;}
	.st1{fill:#010202;}
	.st2{fill:#F6DF1C;}
	.st3{fill:none;}
	.st4{fill:#020203;}
</style>
<g>
	<path class="st3" d="M751.09,310.07c-21.3,0-35.03,17.66-35.03,37.28c0,21.3,15.42,37,35.88,37c13.73,0,25.79-6.73,32.79-16.82
		v-40.64C777.16,316.79,765.11,310.07,751.09,310.07z"/>
	<path class="st3" d="M609.27,359.68c8.97-11.21,14.29-26.35,14.29-42.6s-5.33-31.39-14.29-42.6
		c-10.93-13.73-26.91-21.86-50.17-21.86h-28.03v128.93h28.03C582.37,381.54,598.34,373.41,609.27,359.68z"/>
	<path class="st2" d="M456,20.03H20.88v435.13H456V20.03z M257.84,359.41c0,42.34-24.82,61.61-61.06,61.61
		c-32.74,0-51.7-16.94-61.34-37.35l33.28-20.15c6.42,11.4,12.27,21.03,26.31,21.03c13.43,0,21.91-5.26,21.91-25.69V219.83h40.89
		V359.41z M354.45,421.1c-37.97,0-62.51-18.1-74.51-41.81l33.23-19.3c8.76,14.31,20.17,24.83,40.34,24.83
		c16.94,0,27.77-8.47,27.77-20.17c0-14.02-11.12-18.99-29.77-27.14l-10.22-4.39c-29.51-12.57-49.11-28.32-49.11-61.61
		c0-30.67,23.37-54.01,59.88-54.01c26,0,44.69,9.05,58.16,32.74l-31.84,20.44c-7.01-12.57-14.57-17.52-26.31-17.52
		c-11.98,0-19.57,7.6-19.57,17.52c0,12.27,7.6,17.23,25.14,24.83l10.22,4.38c34.74,14.9,54.36,30.09,54.36,64.23
		C422.21,400.93,393.29,421.1,354.45,421.1z"/>
	<path class="st4" d="M622.45,396.67c24.1-17.94,38.96-47.09,38.96-79.6s-14.85-61.66-38.96-79.6
		c-15.98-11.77-36.44-18.5-67.55-18.5h-61.66v196.19h61.66C586.01,415.17,606.47,408.44,622.45,396.67z M531.08,252.61h28.03
		c23.26,0,39.24,8.13,50.17,21.86c8.97,11.21,14.29,26.35,14.29,42.6s-5.33,31.39-14.29,42.6c-10.93,13.73-26.91,21.86-50.17,21.86
		h-28.03V252.61z"/>
	<path class="st4" d="M786.13,290.17c-10.65-8.69-24.38-13.73-39.8-13.73c-37,0-66.71,30.83-66.71,70.91
		c0,18.5,6.73,35.31,17.38,47.65c12.05,14.01,31.11,22.98,51.29,22.98c13.73,0,26.63-4.2,37.84-13.73v10.93h35.03V279.24h-35.03
		V290.17z M784.72,367.52c-7.01,10.09-19.06,16.82-32.79,16.82c-20.46,0-35.88-15.7-35.88-37c0-19.62,13.73-37.28,35.03-37.28
		c14.01,0,26.07,6.73,33.63,16.82V367.52z"/>
	<polygon class="st4" points="919.26,360.8 879.46,279.24 839.38,279.24 900.2,401.44 862.64,482.43 900.76,482.43 994.37,279.24 
		955.97,279.24 	"/>
	<rect x="1013.99" y="218.98" class="st4" width="37.84" height="196.19"/>
	<polygon class="st4" points="1128.91,326.88 1189.16,326.88 1189.16,293.25 1128.91,293.25 1128.91,252.61 1208.78,252.61 
		1208.78,218.98 1091.07,218.98 1091.07,415.17 1211.59,415.17 1211.59,381.54 1128.91,381.54 	"/>
	<path class="st4" d="M367.85,299.88l-10.22-4.38c-17.54-7.6-25.14-12.56-25.14-24.83c0-9.93,7.59-17.52,19.57-17.52
		c11.74,0,19.3,4.95,26.31,17.52l31.84-20.44c-13.47-23.69-32.16-32.74-58.16-32.74c-36.52,0-59.88,23.34-59.88,54.01
		c0,33.29,19.6,49.04,49.11,61.61l10.22,4.39c18.65,8.16,29.77,13.12,29.77,27.14c0,11.7-10.82,20.17-27.77,20.17
		c-20.17,0-31.57-10.52-40.34-24.83l-33.23,19.3c12,23.72,36.54,41.81,74.51,41.81c38.84,0,67.76-20.17,67.76-56.98
		C422.21,329.97,402.59,314.78,367.85,299.88z"/>
	<path class="st4" d="M216.95,358.86c0,20.44-8.47,25.69-21.91,25.69c-14.05,0-19.89-9.63-26.31-21.03l-33.28,20.15
		c9.64,20.41,28.6,37.35,61.34,37.35c36.23,0,61.06-19.27,61.06-61.61V219.83h-40.89V358.86z"/>
</g>
</svg>
