<?xml version="1.0" encoding="UTF-8"?><svg id="Capa_1" xmlns="http://www.w3.org/2000/svg" viewBox="0 0 180 180"><defs><style>.cls-1{fill:none;stroke:#c8a156;stroke-miterlimit:10;}.cls-2{fill:#c8a156;}.cls-3{fill:#1d1d1d;}</style></defs><path class="cls-2" d="m90,2.91C41.9,2.91,2.91,41.9,2.91,90s38.99,87.09,87.09,87.09,87.09-38.99,87.09-87.09S138.1,2.91,90,2.91Zm0,154.62c-37.3,0-67.53-30.24-67.53-67.53S52.7,22.47,90,22.47s67.53,30.24,67.53,67.53-30.24,67.53-67.53,67.53Z"/><g><path class="cls-3" d="m34.39,37.73c.71.58,1.12,1.05,1.33,1.57.47,1.15.19,2.49-.65,3.51-.95,1.15-2.32,1.58-3.6,1.2l.48-2.06c.47.15,1.14.18,1.62-.4.26-.31.36-.7.28-1.06-.06-.26-.21-.51-.68-.9l-6.23-5.16,1.41-1.7,6.04,5Z"/><path class="cls-3" d="m43.86,33.44l-1.48,1.4-.44-.46c-.09.85-.47,1.55-1.05,2.1-.85.81-2.02,1.19-3.09,1.08-.95-.09-1.9-.54-2.65-1.32-1.61-1.7-1.59-4.19-.02-5.68.65-.62,1.44-.96,2.24-1.01l-.44-.46,1.48-1.41,5.45,5.75Zm-5.08-2.28c-.72-.12-1.5.08-2.1.64-.9.85-.77,2.15.01,2.98.85.9,2.14.95,3,.13.58-.55.82-1.32.71-2.03l-1.63-1.72Z"/><path class="cls-3" d="m46.1,27.88l-1.1-5.19,1.78-1.3,1.73,8.55-1.19.87-7.62-4.25,1.78-1.3,4.61,2.62Z"/><path class="cls-3" d="m58.53,23.85l-1.78.99-.31-.56c-.3.8-.84,1.38-1.54,1.77-1.03.57-2.25.66-3.26.29-.89-.33-1.71-.99-2.24-1.93-1.14-2.04-.5-4.45,1.38-5.5.78-.44,1.63-.57,2.42-.43l-.31-.56,1.78-.99,3.86,6.92Zm-4.36-3.46c-.67-.3-1.48-.3-2.19.1-1.08.6-1.28,1.89-.73,2.89.6,1.08,1.84,1.45,2.88.87.7-.39,1.12-1.07,1.19-1.79l-1.15-2.07Z"/><path class="cls-3" d="m59.36,20.14c.88.42,2,.54,2.97.15.91-.37,1.32-1.19,1-1.96-.55-1.36-2.59-.73-4.35-.98-1.03-.15-1.99-.6-2.48-1.8-.77-1.89.53-3.69,2.28-4.4,1.08-.44,2.18-.59,3.48-.25l-.44,1.94c-.58-.22-1.42-.23-2.11.05-.77.31-1.5,1-1.17,1.81.7,1.71,5.37-.81,6.82,2.77.76,1.88-.39,3.86-2.3,4.64-1.42.58-2.98.52-4.48-.03l.77-1.93Z"/><path class="cls-3" d="m74.36,16.64c-.57,1.44-1.56,2.28-3,2.67-2.36.65-4.58-.64-5.19-2.85-.61-2.22.69-4.48,3.02-5.12,1.32-.36,2.67-.07,3.63.65l-1.1,1.67c-.56-.42-1.27-.63-2.02-.43-1.18.32-1.81,1.5-1.49,2.66.33,1.2,1.44,1.84,2.68,1.5.84-.23,1.36-.91,1.55-1.51l1.9.75Z"/><path class="cls-3" d="m79.57,11.32c-.15-.02-.46,0-.77.05-.92.15-1.53.93-1.71,1.44l.82,4.92-2.1.35-1.3-7.82,2.01-.34.13.79c.37-.66,1.16-1.17,2.11-1.33.31-.05.49-.05.72-.05l.08,1.99Z"/><path class="cls-3" d="m81.86,5.03c.76-.07,1.44.46,1.51,1.22.07.76-.49,1.41-1.26,1.48s-1.44-.46-1.51-1.22c-.07-.76.49-1.41,1.26-1.48Zm2.16,11.94l-2.12.19-.72-7.89,2.12-.19.72,7.89Z"/><path class="cls-3" d="m85.91,8.84h2.04s0,.65,0,.65c.62-.5,1.42-.79,2.32-.79,2.16,0,3.88,1.81,3.87,4.15,0,1.08-.38,2.06-1.01,2.77-.71.81-1.84,1.33-3.01,1.33-.8,0-1.49-.24-2.12-.73l-.02,4.48h-2.12s.05-11.86.05-11.86Zm2.1,5.16c.41.59,1.11.99,1.91.99,1.19,0,2.1-.91,2.1-2.15,0-1.14-.79-2.18-2.03-2.18-.82,0-1.52.39-1.97.97v2.37Z"/><path class="cls-3" d="m101.03,17.69c-.29.06-.93.05-1.33,0-1.27-.15-2.14-.69-2.59-1.47-.34-.58-.43-1.3-.3-2.42l.34-2.76-2.19-.27.22-1.78,2.19.27.27-2.19,2.11.26-.27,2.19,2.59.32-.22,1.78-2.59-.32-.37,3c-.06.49-.01.79.14,1.02.18.27.5.46,1.02.52.31.04.72.04.87.02l.11,1.82Z"/><path class="cls-3" d="m104.85,18.27l8.08-9.47,1.48.46,1.29,12.38-2.2-.68-.28-2.74-4.39-1.36-1.78,2.1-2.2-.68Zm5.36-3.04l2.78.86-.38-3.66-2.39,2.8Z"/><path class="cls-3" d="m119.17,23.37l-1.31-.66.57-8.58,1.91.96-.35,5,3.85-3.24,1.31.66-.31,5.02,3.81-3.26,1.91.96-6.53,5.59-1.31-.66.28-5.01-3.85,3.23Z"/><path class="cls-3" d="m133.43,32.14l-1.66-1.19.37-.52c-.86.07-1.61-.17-2.26-.63-.96-.69-1.56-1.76-1.65-2.83-.09-.95.17-1.97.79-2.85,1.36-1.9,3.81-2.35,5.57-1.1.73.52,1.21,1.23,1.42,2l.37-.52,1.66,1.19-4.61,6.45Zm1.27-5.42c-.02-.74-.36-1.46-1.02-1.94-1.01-.72-2.26-.35-2.93.58-.72,1.01-.52,2.28.45,2.97.65.47,1.45.56,2.13.32l1.38-1.93Z"/><path class="cls-3" d="m142.42,32.08c-.08-.13-.29-.37-.52-.57-.69-.62-1.69-.62-2.2-.44l-3.33,3.71-1.58-1.42,5.3-5.89,1.52,1.37-.54.6c.75-.12,1.64.18,2.36.82.23.21.34.35.49.53l-1.5,1.31Z"/><path class="cls-3" d="m142.85,41.39l.47-.43c-.85-.12-1.53-.51-2.07-1.11-.79-.88-1.14-2.05-1-3.12.12-.94.59-1.89,1.39-2.61,1.74-1.56,4.23-1.47,5.67.14.58.65.9,1.37.95,2.16l3.16-2.84,1.42,1.58-8.64,7.74-1.36-1.52Zm3.78-3.5c.14-.72-.03-1.51-.58-2.11-.83-.92-2.13-.83-2.98-.07-.92.83-1.01,2.11-.21,3,.53.6,1.3.86,2.01.77l1.76-1.58Z"/><path class="cls-3" d="m147.4,43.18c-.09.72.15,1.57.61,2.23.33.47.81.67,1.13.44.97-.69-1.59-3.58.5-5.05,1.24-.88,2.86-.22,3.77,1.06.59.84.92,1.99.89,2.65l-1.83.07c0-.5-.11-1.09-.44-1.55-.34-.48-.81-.75-1.14-.51-.84.59,1.71,3.5-.54,5.08-1.24.88-2.86.2-3.82-1.16-.63-.89-.99-2.06-.97-3.22l1.84-.04Z"/></g><g><path class="cls-3" d="m50.02,148.82l.83.52-6.1,9.68-.83-.52,6.1-9.68Z"/><path class="cls-3" d="m53.99,164.08l-1.24-7.22-1.71-.88-2.68,5.2-.87-.45,5.24-10.17,3.47,1.79c.93.48,1.4,1.03,1.64,1.67.26.7.23,1.52-.14,2.24-.37.73-1.02,1.22-1.74,1.42-.62.18-1.3.12-2.15-.28l1.24,7.22-1.05-.54Zm.03-7.62c.73.37,1.2.42,1.63.29.49-.13.92-.46,1.17-.94.25-.48.27-1.02.09-1.5-.15-.43-.46-.79-1.18-1.16l-2.56-1.32-1.71,3.31,2.56,1.32Z"/><path class="cls-3" d="m61.57,155.85l-1.31,3.49,3.82,1.44-.33.87-3.82-1.44-1.73,4.6,5.05,1.9-.33.87-5.96-2.25,4.03-10.7,5.81,2.19-.33.87-4.89-1.84Z"/><path class="cls-3" d="m66.53,167.65l5.22,1.37-.24.9-6.16-1.62,2.9-11.06.95.25-2.66,10.16Z"/><path class="cls-3" d="m79.97,159.69l3.38,11.99-.97-.13-1.03-3.62-5.51-.73-1.95,3.22-.97-.13,6.41-10.69.65.09Zm-3.62,6.64l4.71.63-1.62-5.79-3.1,5.16Z"/><path class="cls-3" d="m85.47,160.34h.65s7.78,9.44,7.78,9.44l-.1-9.53h.98s.12,11.43.12,11.43h-.65s-7.78-9.44-7.78-9.44l.1,9.53h-.98s-.12-11.43-.12-11.43Z"/><path class="cls-3" d="m105.5,169.15c-.81.82-1.93,1.4-3.72,1.69l-3.23.51-1.8-11.3,3.23-.51c1.79-.29,3.03-.09,4.06.44,1.55.81,2.68,2.35,2.97,4.22.3,1.87-.29,3.69-1.51,4.94Zm-1.83-8.28c-.91-.5-2.01-.66-3.59-.4l-2.21.35,1.51,9.46,2.21-.35c1.58-.25,2.58-.74,3.29-1.5.97-1.05,1.41-2.54,1.17-4.06-.24-1.52-1.13-2.8-2.38-3.49Z"/><path class="cls-3" d="m110.75,159.77c-.16-1.48.59-2.97,2.17-3.51,1.81-.62,3.54.24,4.14,1.98.33.96.23,1.89-.29,3.28l-2.04,5.4,4.9-1.68.3.88-6.34,2.17-.2-.57,2.44-6.4c.52-1.35.52-2.1.31-2.73-.43-1.27-1.65-1.89-2.89-1.46-1.16.4-1.69,1.43-1.56,2.64h-.94Z"/><path class="cls-3" d="m120.77,153.09c2.54-1.2,4.54.62,5.99,3.68,1.45,3.06,1.59,5.76-.96,6.96-2.54,1.2-4.54-.62-5.99-3.68-1.45-3.06-1.59-5.76.96-6.96Zm4.63,9.79c1.92-.91,1.68-3.14.47-5.7-1.21-2.56-2.78-4.16-4.7-3.25-1.92.91-1.68,3.14-.47,5.7,1.21,2.56,2.78,4.16,4.7,3.25Z"/><path class="cls-3" d="m126.32,153.28c-.49-1.41-.08-3.02,1.33-3.9,1.63-1.01,3.5-.55,4.47,1.02.53.86.65,1.79.44,3.26l-.79,5.71,4.41-2.73.49.79-5.7,3.52-.32-.51.96-6.78c.21-1.43.05-2.16-.31-2.73-.7-1.14-2.03-1.47-3.14-.79-1.04.64-1.33,1.76-.94,2.92l-.91.2Z"/><path class="cls-3" d="m137.77,154.06c.92.34,1.99.19,2.93-.54,1.35-1.05,1.4-2.81.44-4.03-1.02-1.31-2.82-1.49-4.18-.43-.49.38-.73.71-.81.84l-.37-.48.24-4.6-3.58,2.79-.57-.73,4.77-3.72.37.48-.22,4.44c1.71-1.15,3.9-.79,5.14.8,1.27,1.62,1.14,3.98-.64,5.37-1.19.92-2.58,1.16-3.81.69l.31-.88Z"/></g><g><path class="cls-2" d="m49.64,79.19l3.61-5.94h1.35v9.92h-1.91v-5.53l-2.38,3.9h-1.33l-2.38-3.9v5.53h-1.91v-9.92h1.35l3.62,5.94Z"/><path class="cls-2" d="m61.05,73.11c3.06,0,5.17,2.28,5.17,5.1s-2.11,5.1-5.17,5.1-5.17-2.28-5.17-5.1,2.11-5.1,5.17-5.1Zm0,8.5c1.87,0,3.26-1.53,3.26-3.4s-1.39-3.4-3.26-3.4-3.26,1.53-3.26,3.4,1.39,3.4,3.26,3.4Z"/><path class="cls-2" d="m67.75,80.52c.57.62,1.43,1.09,2.34,1.09.85,0,1.45-.52,1.45-1.25,0-1.28-1.84-1.43-3.17-2.21-.78-.45-1.4-1.13-1.4-2.25,0-1.77,1.63-2.79,3.27-2.79,1.01,0,1.94.24,2.88.94l-.99,1.42c-.4-.37-1.06-.65-1.71-.65-.72,0-1.53.31-1.53,1.08,0,1.6,4.58,1.11,4.58,4.45,0,1.76-1.57,2.98-3.36,2.98-1.33,0-2.57-.55-3.59-1.49l1.25-1.3Z"/><path class="cls-2" d="m80.82,73.25v1.7h-2.62v8.22h-1.91v-8.22h-2.62v-1.7h7.16Z"/><path class="cls-2" d="m84,73.25h1.97l2.71,6.78,2.72-6.78h1.97l-4.01,9.92h-1.35l-4.01-9.92Z"/><path class="cls-2" d="m92.38,83.17l4.25-9.92h1.35l4.25,9.92h-2l-.94-2.2h-3.98l-.94,2.2h-2Zm3.66-3.9h2.52l-1.26-2.93-1.26,2.93Z"/><path class="cls-2" d="m103.08,73.25h1.91v8.22h4.18v1.7h-6.1v-9.92Z"/><path class="cls-2" d="m111.16,82.29c-.82-.74-1.28-1.79-1.28-3.3v-5.74h1.91v5.88c0,.91.24,1.46.65,1.84.42.41,1.02.64,1.69.64s1.26-.23,1.69-.64c.41-.38.65-.94.65-1.84v-5.88h1.91v5.74c0,1.52-.45,2.57-1.28,3.3-.77.68-1.86,1.02-2.98,1.02s-2.21-.34-2.98-1.02Z"/><path class="cls-2" d="m122.21,74.95v2.06h3.05v1.7h-3.05v2.76h4.18v1.7h-6.1v-9.92h5.95v1.7h-4.04Z"/><path class="cls-2" d="m130.93,73.25c1.57,0,2.61.34,3.42.94,1.22.91,1.97,2.38,1.97,4.03s-.75,3.12-1.97,4.03c-.81.6-1.84.94-3.42.94h-3.12v-9.92h3.12Zm2.75,2.81c-.55-.69-1.36-1.11-2.54-1.11h-1.42v6.52h1.42c1.18,0,1.99-.41,2.54-1.11.45-.57.72-1.33.72-2.15s-.27-1.59-.72-2.16Z"/><path class="cls-2" d="m53.93,93.25c0,1.93,1.47,3.4,3.39,3.4,1.29,0,2.23-.62,2.81-1.38l1.32,1.18c-.88,1.12-2.35,1.9-4.17,1.9-3.09,0-5.26-2.25-5.26-5.1s2.14-5.1,5.23-5.1c1.47,0,2.74.55,3.63,1.42l-1.23,1.3c-.6-.6-1.43-1.02-2.41-1.02-1.88,0-3.3,1.52-3.3,3.4Z"/><path class="cls-2" d="m66.97,88.15c3.06,0,5.17,2.28,5.17,5.1s-2.11,5.1-5.17,5.1-5.17-2.28-5.17-5.1,2.11-5.1,5.17-5.1Zm0,8.5c1.87,0,3.26-1.53,3.26-3.4s-1.39-3.4-3.26-3.4-3.26,1.53-3.26,3.4,1.39,3.4,3.26,3.4Z"/><path class="cls-2" d="m78.38,94.23l3.61-5.94h1.35v9.92h-1.91v-5.53l-2.38,3.9h-1.33l-2.38-3.9v5.53h-1.91v-9.92h1.35l3.62,5.94Z"/><path class="cls-2" d="m90.29,94.23l3.61-5.94h1.35v9.92h-1.91v-5.53l-2.38,3.9h-1.33l-2.38-3.9v5.53h-1.91v-9.92h1.35l3.62,5.94Z"/><path class="cls-2" d="m98.43,97.33c-.82-.74-1.28-1.79-1.28-3.3v-5.74h1.91v5.88c0,.91.24,1.46.65,1.84.42.41,1.02.64,1.69.64s1.26-.23,1.69-.64c.41-.38.65-.94.65-1.84v-5.88h1.91v5.74c0,1.52-.45,2.57-1.28,3.3-.77.68-1.86,1.02-2.98,1.02s-2.21-.34-2.98-1.02Z"/><path class="cls-2" d="m107.57,88.29h1.35l5.53,6.46v-6.46h1.91v9.92h-1.35l-5.53-6.46v6.46h-1.91v-9.92Z"/><path class="cls-2" d="m118.34,88.29h1.91v9.92h-1.91v-9.92Z"/><path class="cls-2" d="m128.62,88.29v1.7h-2.62v8.22h-1.91v-8.22h-2.62v-1.7h7.16Z"/><path class="cls-2" d="m67.79,109.27l3.61-5.94h1.35v9.92h-1.91v-5.53l-2.38,3.9h-1.33l-2.38-3.9v5.53h-1.91v-9.92h1.35l3.62,5.94Z"/><path class="cls-2" d="m76.64,105.03v2.06h3.05v1.7h-3.05v2.76h4.18v1.7h-6.1v-9.92h5.95v1.7h-4.04Z"/><path class="cls-2" d="m87.2,109.27l3.61-5.94h1.35v9.92h-1.91v-5.53l-2.38,3.9h-1.33l-2.38-3.9v5.53h-1.91v-9.92h1.35l3.62,5.94Z"/><path class="cls-2" d="m97.52,103.33c1.12,0,1.74.27,2.23.69.55.48.92,1.19.92,2,0,.65-.31,1.32-.64,1.66.88.44,1.49,1.43,1.49,2.54,0,.84-.35,1.6-.91,2.14-.55.55-1.32.89-2.59.89h-3.87v-9.92h3.37Zm-1.46,3.83h1.35c.6,0,.86-.14,1.06-.35.17-.18.28-.44.28-.71s-.11-.52-.28-.71c-.2-.21-.47-.35-1.06-.35h-1.35v2.13Zm1.91,4.39c.67,0,1.04-.17,1.28-.44.23-.24.35-.55.35-.91s-.13-.67-.35-.91c-.24-.27-.61-.44-1.28-.44h-1.91v2.69h1.91Z"/><path class="cls-2" d="m104.63,105.03v2.06h3.05v1.7h-3.05v2.76h4.18v1.7h-6.1v-9.92h5.95v1.7h-4.04Z"/><path class="cls-2" d="m112.14,108.86v4.39h-1.91v-9.92h3.62c1.02,0,1.67.28,2.17.74.54.51.88,1.23.88,2.03s-.34,1.52-.88,2.03c-.27.26-.6.45-.99.58l3.71,4.55h-2.37l-3.53-4.39h-.69Zm1.59-1.7c.55,0,.79-.11.96-.3.17-.18.28-.47.28-.75,0-.3-.11-.58-.28-.77-.17-.18-.41-.31-.96-.31h-1.59v2.13h1.59Z"/></g><g><path class="cls-2" d="m76.36,129.57c.59.27,1.01.88,1.01,1.57,0,.51-.22.96-.57,1.27-.31.27-.71.44-1.31.44h-2.08v-5.78h1.89c.54,0,.88.15,1.13.39.27.26.45.62.45,1.02,0,.44-.21.83-.52,1.09Zm-1.08-.15c.44,0,.69-.12.86-.31.16-.17.25-.39.25-.64s-.09-.47-.25-.64c-.17-.18-.42-.3-.86-.3h-1.37v1.88h1.37Zm-1.37.47v2.48h1.56c.5,0,.81-.13,1.03-.35.23-.22.38-.54.38-.89s-.15-.67-.38-.89c-.22-.21-.53-.35-1.03-.35h-1.56Z"/><path class="cls-2" d="m78.41,131.88c-.21-.34-.34-.73-.34-1.35v-3.47h.5v3.49c0,.5.09.81.26,1.07.32.5.9.83,1.56.83s1.24-.32,1.56-.83c.17-.26.26-.57.26-1.07v-3.49h.5v3.47c0,.61-.12,1.01-.34,1.35-.4.64-1.14,1.05-1.97,1.05s-1.57-.41-1.97-1.05Z"/><path class="cls-2" d="m83.72,131.63c.34.44.79.83,1.55.83.58,0,1.19-.41,1.19-1.08,0-1.05-1.24-1.16-2.08-1.68-.43-.26-.78-.6-.78-1.19,0-.9.72-1.52,1.64-1.52.74,0,1.21.35,1.48.58l-.31.36c-.34-.3-.67-.47-1.15-.47-.64,0-1.16.4-1.16,1.02,0,.88,1.16.99,1.99,1.5.48.3.88.73.88,1.39,0,.92-.74,1.55-1.68,1.55-.77,0-1.42-.32-1.92-.97l.36-.32Z"/><path class="cls-2" d="m87.87,127.07h.5v5.78h-.5v-5.78Z"/><path class="cls-2" d="m89.69,127.07h.33l3.88,4.81v-4.81h.5v5.78h-.33l-3.88-4.81v4.81h-.5v-5.78Z"/><path class="cls-2" d="m96.21,127.54v1.88h2.06v.47h-2.06v2.48h2.72v.47h-3.22v-5.78h3.14v.47h-2.64Z"/><path class="cls-2" d="m99.79,131.63c.34.44.79.83,1.55.83.58,0,1.19-.41,1.19-1.08,0-1.05-1.24-1.16-2.08-1.68-.43-.26-.78-.6-.78-1.19,0-.9.72-1.52,1.64-1.52.74,0,1.21.35,1.48.58l-.31.36c-.34-.3-.67-.47-1.15-.47-.64,0-1.16.4-1.16,1.02,0,.88,1.16.99,1.99,1.5.48.3.88.73.88,1.39,0,.92-.74,1.55-1.68,1.55-.77,0-1.42-.32-1.92-.97l.36-.32Z"/><path class="cls-2" d="m103.89,131.63c.34.44.79.83,1.55.83.58,0,1.19-.41,1.19-1.08,0-1.05-1.24-1.16-2.08-1.68-.43-.26-.78-.6-.78-1.19,0-.9.72-1.52,1.64-1.52.74,0,1.21.35,1.48.58l-.31.36c-.34-.3-.67-.47-1.15-.47-.64,0-1.16.4-1.16,1.02,0,.88,1.16.99,1.99,1.5.48.3.88.73.88,1.39,0,.92-.74,1.55-1.68,1.55-.77,0-1.42-.32-1.92-.97l.36-.32Z"/></g><g><g><g><circle class="cls-1" cx="90.25" cy="46.91" r="4.49"/><path class="cls-1" d="m81.24,61.7c0-3.89,4.45-6.43,9.01-6.43"/><path class="cls-1" d="m90.25,55.28c4.56,0,9.01,2.53,9.01,6.43"/><path class="cls-1" d="m99.26,61.73v1.29c0,.71-.58,1.29-1.29,1.29h-15.44c-.71,0-1.29-.58-1.29-1.29v-1.29"/></g><g><circle class="cls-1" cx="74.66" cy="49.1" r="3.28"/><path class="cls-1" d="m68.09,59.88c0-2.84,3.25-4.69,6.57-4.69"/><path class="cls-1" d="m74.66,55.2c3.33,0,6.57,1.85,6.57,4.69"/><path class="cls-1" d="m81.24,59.9v.94c0,.52-.42.94-.94.94h-11.27c-.52,0-.94-.42-.94-.94v-.94"/></g><g><circle class="cls-1" cx="105.83" cy="49.1" r="3.28"/><path class="cls-1" d="m99.25,59.88c0-2.84,3.25-4.69,6.57-4.69"/><path class="cls-1" d="m105.83,55.2c3.33,0,6.57,1.85,6.57,4.69"/><path class="cls-1" d="m112.4,59.9v.94c0,.52-.42.94-.94.94h-11.27c-.52,0-.94-.42-.94-.94v-.94"/></g></g><line class="cls-1" x1="114.03" y1="41.79" x2="120.19" y2="41.79"/><line class="cls-1" x1="117.11" y1="44.87" x2="117.11" y2="38.71"/></g></svg>